<svg class="fill-current hover:text-linkHover text-white" width="24" height="24" viewBox="0 0 24 24" xmlns="http://www.w3.org/2000/svg">
<path class="fill-current hover:text-linkHover" fill-rule="evenodd" clip-rule="evenodd" d="M20.4881 3.51194V8.48806L24 12L20.4881 15.5119V20.4881H15.5119L12 24L8.48806 20.4881H3.51194V15.5119L0 12L3.51194 8.48806V3.51194H8.48806L12 0L15.5119 3.51194H20.4881ZM18.366 18.366V14.6313L20.9973 12L18.366 9.3687V5.63395H14.6313L12 3.00265L9.3687 5.63395H5.63395V9.3687L3.00265 12L5.63395 14.6313V18.366H9.3687L12 20.9973L14.6313 18.366H18.366ZM12 5.63395C8.48806 5.63395 5.63395 8.48806 5.63395 12C5.63395 15.5119 8.48806 18.366 12 18.366C15.5119 18.366 18.366 15.5119 18.366 12C18.366 8.48806 15.5119 5.63395 12 5.63395ZM7.75597 12C7.75597 14.3448 9.65517 16.244 12 16.244C14.3448 16.244 16.244 14.3448 16.244 12C16.244 9.65517 14.3448 7.75597 12 7.75597C9.65517 7.75597 7.75597 9.65517 7.75597 12Z" fill="white"/>
</svg>
